<svg width="132" height="44" viewBox="0 0 132 44" fill="none" xmlns="http://www.w3.org/2000/svg">
<path d="M2.0094 3.77189C3.57873 4.12063 3.72544 7.63661 3.92065 8.8079C4.9153 14.7758 4.80426 20.8693 5.28584 26.889C5.38266 28.0993 5.4829 29.3102 5.58339 30.5214M5.58339 30.5214C5.85786 33.8298 6.13417 37.1409 6.34765 40.4498C6.52765 43.2398 6.2295 40.1331 6.10495 39.2363C5.75595 36.7235 5.03391 33.3407 5.58339 30.5214ZM5.58339 30.5214C5.92256 28.7813 6.74615 27.2558 8.44092 26.2822C10.5212 25.0872 17.5848 22.4202 19.2714 24.8564C20.4445 26.5509 23.4276 30.3929 21.6073 32.4407C20.1713 34.0563 14.874 36.3837 12.9309 35.5655C11.6171 35.0123 9.68671 34.6929 8.28924 34.3823C6.70873 34.0311 7.41942 32.6884 6.37798 32.1677M31.4973 23.9766C31.4973 25.942 32.174 27.8123 32.4681 29.7407C32.811 31.9885 32.3615 34.2122 33.0142 36.4149C33.4635 37.9313 33.1142 36.9241 33.1356 35.7475C33.1958 32.4338 33.8299 29.0672 34.3491 25.7968C34.6836 23.6893 35.1159 20.1541 37.9289 20.1541C39.0698 20.1541 39.6884 24.0972 39.6884 25.0687M47.3334 25.6148C47.3334 26.6797 47.4703 27.7341 47.7891 28.628M47.7891 28.628C48.4105 30.3704 49.723 31.5032 52.0603 30.9161M47.7891 28.628C46.1513 27.5812 44.891 26.271 45.8166 24.5226C46.2801 23.6471 47.7059 22.5547 48.7289 22.3687C52.0054 21.773 56.0032 18.8085 59.347 20.5788C60.5942 21.2391 59.8398 24.0542 59.347 25.0687C57.8594 28.1315 55.7665 29.7005 52.5515 30.7721C52.3829 30.8283 52.2193 30.8762 52.0603 30.9161M47.7891 28.628C48.7862 29.2654 49.9231 29.8051 50.7919 30.2867C51.2146 30.5211 51.6378 30.7308 52.0603 30.9161M52.0603 30.9161C55.9029 32.6018 59.6824 32.2743 62.3905 30.1457M62.3905 30.1457C64.2688 28.6693 65.6317 26.3264 66.1426 23.1878C66.6449 20.1023 66.63 16.7301 66.446 13.6012C66.3362 11.7346 61.4369 19.8315 61.1066 20.7001C59.8419 24.0257 59.8273 28.2913 62.3905 30.1457ZM62.3905 30.1457C63.199 30.7305 64.2639 31.0755 65.6269 31.0755C68.3113 31.0755 74.6371 28.0719 74.6371 25.0687M81.736 17.4237C81.736 20.1457 80.481 22.9898 79.8248 25.6148C79.2404 27.9522 78.9605 30.2037 78.2042 32.3903M78.2042 32.3903C77.9297 33.1838 77.5924 33.9689 77.1551 34.7464C75.5524 37.5956 76.272 35.8582 78.2042 32.3903ZM78.2042 32.3903C81.3727 26.7033 87.8018 16.3628 92.5968 13.9653C93.2601 13.6336 90.779 27.2846 92.6575 28.2238C94.6838 29.237 102.766 26.6937 103.579 25.0687M129.79 1.58765C129.79 7.99537 128.564 14.3399 127.91 20.7002C127.659 23.1375 127.779 25.7124 127.181 28.1025C126.992 28.8613 125.315 25.652 124.997 25.1901C122.504 21.5644 120.275 18.4789 116.685 15.8462C112.469 12.7543 108.636 16.4186 105.551 19.6384C101.424 23.9443 105.312 28.1624 110.162 27.1924C111.82 26.8609 113.189 25.8285 114.864 25.4935C116.702 25.1261 119.494 25.016 121.053 23.9766" stroke="black" stroke-width="3" stroke-linecap="round"/>
</svg>
